# xmcd
#
# Track frame offsets: 
#        150
#        18440
#        34854
#        54012
#        73235
#        92483
#        109351
#        127928
#        139504
#        158199
#        177634
#        195286
#        217719
#        236799
#        253803
#        268522
#        283348
#
# Disc length: 4122 seconds
#
# Revision: 1
# Processed by: cddbd v1.5.1PL0 Copyright (c) Steve Scherf et al.
# Submitted via: ExactAudioCopy v0.95b2
#
DISCID=f2101811
DTITLE=Angelheart - Wild Heart Of Allison
DYEAR=2002
DGENRE=
TTITLE0=Stay Away
TTITLE1=What Would You Do?
TTITLE2=Don't Get Me Down
TTITLE3=Come Around
TTITLE4=Voice Of My Heart
TTITLE5=I Need You
TTITLE6=Swiss Cheese
TTITLE7=Mister Sandman
TTITLE8=Don't Make Me
TTITLE9=Hold You
TTITLE10=Next To You
TTITLE11=Love Or Insane
TTITLE12=Don't Cry Over Me
TTITLE13=I Found Love
TTITLE14=Going To Rome
TTITLE15=Come Again
TTITLE16=My Lord Willoughby's Welcome Home
EXTD=
EXTT0=
EXTT1=
EXTT2=
EXTT3=
EXTT4=
EXTT5=
EXTT6=
EXTT7=
EXTT8=
EXTT9=
EXTT10=
EXTT11=
EXTT12=
EXTT13=
EXTT14=
EXTT15=
EXTT16=
PLAYORDER=
